<svg width="2750" height="814" viewBox="0 0 2750 814" fill="none" xmlns="http://www.w3.org/2000/svg">
<g filter="url(#filter0_d_5_2)">
<path fill-rule="evenodd" clip-rule="evenodd" d="M456.2 692.265C490.57 678.948 522.831 657.953 550.545 629.272C654.542 521.645 655.124 346.54 551.844 238.165C448.564 129.79 280.533 129.184 176.536 236.811C148.822 265.492 128.452 298.966 115.435 334.691C127.844 287.087 152.057 242.138 188.058 204.88C297.394 91.7277 474.05 92.3651 582.631 206.303C691.212 320.241 690.601 504.334 581.265 617.486C545.264 654.744 501.965 679.664 456.2 692.265Z" fill="white"/>
<path fill-rule="evenodd" clip-rule="evenodd" d="M612.279 505.287C600.272 538.239 581.483 569.113 555.921 595.568C459.995 694.842 305.006 694.283 209.742 594.319C114.478 494.355 115.015 332.841 210.941 233.568C236.502 207.114 266.258 187.749 297.959 175.465C255.748 187.088 215.81 210.074 182.604 244.439C81.7547 348.809 81.1905 518.614 181.344 623.709C281.498 728.803 444.443 729.391 545.293 625.022C578.499 590.656 600.833 549.195 612.279 505.287Z" fill="#3CB371"/>
<path d="M368.23 261.975L330.389 262.217V316.165V370.114L384.016 370.356C413.499 370.501 438.71 370.404 439.964 370.211C441.264 370.017 443.864 369.63 445.768 369.437C447.671 369.195 450.179 368.759 451.339 368.517C452.5 368.227 454.682 367.743 456.215 367.453C457.747 367.163 460.068 366.485 461.322 365.953C462.622 365.469 464.061 365.034 464.526 365.034C466.94 365.034 479.29 359.082 487.137 354.099C500.88 345.39 515.691 329.665 522.006 317.085C522.479 316.156 523.036 315.314 523.406 314.789C523.672 314.412 523.928 314.026 524.15 313.621L524.745 312.536L525.72 310.843L526.092 309.924L526.788 308.23L527.007 307.758C527.322 307.081 527.528 306.344 527.752 305.632C528.01 304.812 528.426 303.666 528.877 302.521C529.43 301.234 529.99 299.772 530.277 299.01C530.409 298.66 530.556 298.316 530.722 297.981L530.967 297.489L531.663 295.844L531.988 294.828L532.313 293.812C532.313 293.812 533.056 292.167 533.149 290.957C533.288 289.796 533.845 286.748 534.403 284.232C536.399 275.522 537.421 262.652 536.213 262.217C535.331 261.878 411.41 261.684 368.23 261.975Z" fill="#3CB371"/>
<path d="M300.181 262.314C291.035 263.572 279.845 266.378 274.645 268.7C272.362 269.716 270.307 270.51 268.923 271.018C267.729 271.456 266.552 271.936 265.413 272.503V272.503C263.069 273.671 260.966 275.273 258.754 276.676C258.621 276.761 258.485 276.844 258.348 276.926C249.526 282.248 240.055 290.328 233.322 298.263C227.379 305.327 222.225 313.262 218.232 321.488C216.886 324.294 215.632 326.955 215.4 327.391C214.425 329.374 211.593 338.229 210.293 343.164C207.368 354.438 207.414 354.292 207.229 388.984C207.089 406.548 207.089 422.418 207.182 424.305L207.321 427.692L208.714 425.514C213.589 417.87 225.429 404.467 232.765 398.371C246.415 386.904 262.759 378.291 278.824 374.033C288.76 371.421 293.588 370.598 303.199 369.872C307.146 369.582 310.535 369.195 310.767 368.953C310.953 368.759 311.046 344.664 310.999 315.391L310.86 262.217L306.217 262.168C303.664 262.12 300.971 262.168 300.181 262.314Z" fill="#3CB371"/>
<path d="M330.546 390.532C329.989 391.161 329.896 398.419 329.989 433.691C329.989 457.013 330.082 476.85 330.129 477.77C330.175 478.689 330.036 483.527 329.85 488.463C329.525 497.414 329.525 497.462 330.593 498.575C331.521 499.543 331.939 499.639 334.493 499.349C336.025 499.204 339.507 498.817 342.2 498.575C351.951 497.607 364.997 493.736 374.516 488.995C403.534 474.625 425.031 447.142 431.949 415.596C433.946 406.499 434.178 404.661 434.457 397.838C434.642 392.855 434.596 391.016 434.132 390.436C433.621 389.807 427.585 389.71 382.362 389.71C335.329 389.71 331.104 389.758 330.546 390.532Z" fill="white"/>
<path d="M299.392 390.968C287.414 392.468 276.27 395.855 265.731 401.177C263.224 402.435 261.088 403.596 260.948 403.741C260.809 403.935 259.881 404.467 258.859 404.951C257.838 405.435 256.491 406.257 255.888 406.741C255.284 407.225 254.448 407.612 253.984 407.612C253.566 407.612 252.963 408.144 252.684 408.773C252.405 409.402 251.709 410.128 251.105 410.273C250.502 410.467 249.295 411.338 248.366 412.16C247.484 412.983 245.58 414.628 244.187 415.837C241.123 418.45 233.508 426.337 230.862 429.627C227.983 433.207 221.39 443.513 218.976 448.303C213.776 458.609 210.386 468.963 208.158 481.398C207.461 485.414 207.322 488.656 207.322 500.994C207.368 514.058 207.461 516.38 208.343 521.074C209.968 529.734 212.522 538.831 214.379 542.605C214.704 543.282 214.983 544.056 214.983 544.346C214.983 545.798 222.69 560.265 226.08 565.103C237.641 581.893 251.755 593.65 271.163 602.795C277.988 605.988 290.06 609.278 298.789 610.295C307.564 611.359 309.7 611.407 310.396 610.827C311 610.295 311.093 596.747 311.093 500.8C311.093 416.321 310.954 391.21 310.536 390.774C309.839 390.048 306.032 390.097 299.392 390.968Z" fill="white"/>
<path d="M846.987 548.072V524.758L877.147 519.577V307.348L846.987 302.168V278.669H1049.59V343.429H1020.36L1016.29 306.978H913.598V400.233H1012.22V428.913H913.598V519.577L943.758 524.758V548.072H846.987ZM1076.24 548.072V524.758L1106.4 519.577V288.105L1076.24 282.925V259.426H1142.85V519.577L1173.01 524.758V548.072H1076.24ZM1286.62 551.957C1268.11 551.957 1252.02 547.763 1238.32 539.375C1224.63 530.864 1214.02 519.084 1206.5 504.035C1199.1 488.986 1195.4 471.593 1195.4 451.856V443.715C1195.4 424.719 1199.28 407.758 1207.05 392.832C1214.95 377.783 1225.37 365.941 1238.32 357.306C1251.4 348.548 1265.65 344.169 1281.07 344.169C1299.08 344.169 1314.12 347.87 1326.21 355.271C1338.43 362.672 1347.62 373.096 1353.78 386.541C1359.95 399.863 1363.03 415.591 1363.03 433.724V456.482H1233.14L1232.59 457.407C1232.84 470.236 1235.06 481.646 1239.25 491.638C1243.57 501.506 1249.73 509.277 1257.75 514.952C1265.77 520.626 1275.39 523.463 1286.62 523.463C1298.95 523.463 1309.75 521.736 1319 518.282C1328.37 514.705 1336.45 509.832 1343.24 503.665L1357.48 527.348C1350.33 534.256 1340.83 540.116 1328.99 544.926C1317.27 549.614 1303.15 551.957 1286.62 551.957ZM1234.25 427.988H1326.58V423.177C1326.58 413.555 1324.86 404.982 1321.4 397.458C1318.07 389.81 1313.01 383.827 1306.23 379.51C1299.57 375.069 1291.18 372.849 1281.07 372.849C1272.93 372.849 1265.52 375.254 1258.86 380.065C1252.2 384.752 1246.71 391.167 1242.4 399.308C1238.08 407.449 1235.24 416.701 1233.88 427.062L1234.25 427.988ZM1488.3 551.957C1469.8 551.957 1453.7 547.763 1440.01 539.375C1426.31 530.864 1415.71 519.084 1408.18 504.035C1400.78 488.986 1397.08 471.593 1397.08 451.856V443.715C1397.08 424.719 1400.97 407.758 1408.74 392.832C1416.63 377.783 1427.05 365.941 1440.01 357.306C1453.08 348.548 1467.33 344.169 1482.75 344.169C1500.76 344.169 1515.81 347.87 1527.9 355.271C1540.11 362.672 1549.3 373.096 1555.47 386.541C1561.63 399.863 1564.72 415.591 1564.72 433.724V456.482H1434.83L1434.27 457.407C1434.52 470.236 1436.74 481.646 1440.93 491.638C1445.25 501.506 1451.42 509.277 1459.43 514.952C1467.45 520.626 1477.07 523.463 1488.3 523.463C1500.63 523.463 1511.43 521.736 1520.68 518.282C1530.05 514.705 1538.13 509.832 1544.92 503.665L1559.17 527.348C1552.01 534.256 1542.51 540.116 1530.67 544.926C1518.95 549.614 1504.83 551.957 1488.3 551.957ZM1435.94 427.988H1528.27V423.177C1528.27 413.555 1526.54 404.982 1523.08 397.458C1519.75 389.81 1514.7 383.827 1507.91 379.51C1501.25 375.069 1492.86 372.849 1482.75 372.849C1474.61 372.849 1467.21 375.254 1460.54 380.065C1453.88 384.752 1448.39 391.167 1444.08 399.308C1439.76 407.449 1436.92 416.701 1435.57 427.062L1435.94 427.988ZM1663.89 551.217C1649.09 551.217 1637.31 546.9 1628.55 538.265C1619.92 529.507 1615.6 515.568 1615.6 496.449V374.884H1583.96V347.87H1615.6V299.577H1652.05V347.87H1695.53V374.884H1652.05V496.449C1652.05 506.07 1653.96 513.163 1657.79 517.727C1661.61 522.291 1666.73 524.573 1673.14 524.573C1677.46 524.573 1682.27 524.203 1687.58 523.463C1692.88 522.599 1697.01 521.859 1699.97 521.243L1704.97 545.111C1699.66 546.715 1693.13 548.133 1685.36 549.367C1677.71 550.601 1670.55 551.217 1663.89 551.217Z" fill="white"/>
<path d="M1826.72 551.957C1810.31 551.957 1794.52 549.552 1779.35 544.741C1764.18 539.93 1749.68 532.529 1735.87 522.538V464.994H1764.18L1770.28 507.365C1778.3 512.299 1787 516.123 1796.37 518.837C1805.75 521.551 1815.86 522.908 1826.72 522.908C1839.05 522.908 1849.48 521.057 1857.99 517.357C1866.62 513.533 1873.22 508.29 1877.79 501.629C1882.35 494.968 1884.63 487.197 1884.63 478.316C1884.63 470.051 1882.66 462.773 1878.71 456.482C1874.76 450.191 1868.23 444.702 1859.1 440.015C1850.09 435.204 1837.76 431.01 1822.09 427.433C1803.59 423.115 1787.92 417.379 1775.1 410.225C1762.39 402.947 1752.71 394.189 1746.05 383.951C1739.51 373.589 1736.24 361.747 1736.24 348.425C1736.24 334.363 1739.94 321.781 1747.34 310.679C1754.87 299.577 1765.29 290.819 1778.61 284.405C1791.93 277.99 1807.48 274.783 1825.24 274.783C1844.11 274.783 1860.76 277.682 1875.2 283.48C1889.75 289.154 1901.72 296.062 1911.09 304.203V358.047H1882.78L1876.68 319.56C1871.13 315.12 1864.22 311.419 1855.95 308.459C1847.69 305.498 1837.45 304.018 1825.24 304.018C1814.88 304.018 1805.75 305.868 1797.85 309.569C1789.96 313.146 1783.79 318.203 1779.35 324.741C1774.91 331.279 1772.69 338.988 1772.69 347.87C1772.69 355.641 1774.66 362.426 1778.61 368.223C1782.68 374.021 1789.22 379.14 1798.22 383.581C1807.35 387.898 1819.5 391.969 1834.67 395.793C1863.05 402.824 1884.51 413.247 1899.06 427.062C1913.74 440.755 1921.08 457.716 1921.08 477.946C1921.08 492.378 1917.2 505.207 1909.43 516.432C1901.66 527.534 1890.68 536.23 1876.49 542.521C1862.43 548.812 1845.84 551.957 1826.72 551.957ZM2016.19 551.957C1995.34 551.957 1979.49 546.9 1968.64 536.785C1957.78 526.547 1952.35 512.176 1952.35 493.673C1952.35 480.968 1955.81 469.928 1962.71 460.553C1969.75 451.055 1979.86 443.715 1993.06 438.534C2006.26 433.23 2022.05 430.578 2040.43 430.578H2076.14V410.965C2076.14 398.876 2072.44 389.502 2065.04 382.84C2057.76 376.179 2047.46 372.849 2034.14 372.849C2025.75 372.849 2018.47 373.897 2012.3 375.994C2006.14 377.968 2000.52 380.743 1995.47 384.321L1991.58 412.26H1963.46V366.373C1972.46 359.095 1982.94 353.606 1994.91 349.905C2006.88 346.081 2020.14 344.169 2034.69 344.169C2058.99 344.169 2078.05 349.967 2091.87 361.562C2105.68 373.157 2112.59 389.748 2112.59 411.335V507.735C2112.59 510.326 2112.59 512.855 2112.59 515.322C2112.71 517.789 2112.9 520.256 2113.14 522.723L2132.57 524.758V548.072H2080.21C2079.1 542.644 2078.24 537.772 2077.62 533.454C2077 529.137 2076.57 524.82 2076.32 520.502C2069.29 529.507 2060.47 537.032 2049.86 543.076C2039.38 548.997 2028.15 551.957 2016.19 551.957ZM2021.55 521.428C2033.64 521.428 2044.68 518.529 2054.67 512.731C2064.67 506.934 2071.82 499.964 2076.14 491.823V455.557H2039.13C2022.36 455.557 2009.77 459.566 2001.39 467.584C1993 475.602 1988.8 484.545 1988.8 494.413C1988.8 503.171 1991.52 509.894 1996.95 514.581C2002.37 519.146 2010.58 521.428 2021.55 521.428ZM2231.56 551.217C2216.76 551.217 2204.98 546.9 2196.22 538.265C2187.59 529.507 2183.27 515.568 2183.27 496.449V374.884H2151.63V347.87H2183.27V299.577H2219.72V347.87H2263.2V374.884H2219.72V496.449C2219.72 506.07 2221.63 513.163 2225.46 517.727C2229.28 522.291 2234.4 524.573 2240.81 524.573C2245.13 524.573 2249.94 524.203 2255.25 523.463C2260.55 522.599 2264.68 521.859 2267.64 521.243L2272.64 545.111C2267.34 546.715 2260.8 548.133 2253.03 549.367C2245.38 550.601 2238.22 551.217 2231.56 551.217ZM2291.33 548.072V524.758L2321.49 519.577V288.105L2291.33 282.925V259.426H2357.94V374.514C2364.85 364.893 2373.3 357.43 2383.29 352.126C2393.28 346.821 2404.38 344.169 2416.59 344.169C2438.06 344.169 2454.71 350.584 2466.55 363.412C2478.39 376.241 2484.31 395.978 2484.31 422.622V519.577L2514.47 524.758V548.072H2417.7V524.758L2447.86 519.577V422.252C2447.86 405.722 2444.29 393.51 2437.13 385.616C2430.1 377.721 2419.55 373.774 2405.49 373.774C2395.5 373.774 2386.37 376.179 2378.11 380.99C2369.96 385.678 2363.24 392.092 2357.94 400.233V519.577L2388.1 524.758V548.072H2291.33ZM2538.16 548.072V524.758L2568.32 519.577V376.549L2538.16 371.369V347.87H2604.77V519.577L2634.93 524.758V548.072H2538.16ZM2566.47 298.467V259.426H2604.77V298.467H2566.47Z" fill="#3CB371"/>
<rect x="2657.39" y="214.693" width="50.0392" height="47.4633" fill="white"/>
<rect x="2707.43" y="176.318" width="38.5719" height="38.3746" fill="#3CB371"/>
<rect x="2678.24" y="150.062" width="29.1895" height="26.2563" fill="white"/>
</g>
<defs>
<filter id="filter0_d_5_2" x="102.596" y="120.431" width="2647.4" height="590.485" filterUnits="userSpaceOnUse" color-interpolation-filters="sRGB">
<feFlood flood-opacity="0" result="BackgroundImageFix"/>
<feColorMatrix in="SourceAlpha" type="matrix" values="0 0 0 0 0 0 0 0 0 0 0 0 0 0 0 0 0 0 127 0" result="hardAlpha"/>
<feOffset dy="4"/>
<feGaussianBlur stdDeviation="2"/>
<feComposite in2="hardAlpha" operator="out"/>
<feColorMatrix type="matrix" values="0 0 0 0 0 0 0 0 0 0 0 0 0 0 0 0 0 0 0.25 0"/>
<feBlend mode="normal" in2="BackgroundImageFix" result="effect1_dropShadow_5_2"/>
<feBlend mode="normal" in="SourceGraphic" in2="effect1_dropShadow_5_2" result="shape"/>
</filter>
</defs>
</svg>
