<svg width="2750" height="814" viewBox="0 0 2750 814" fill="none" xmlns="http://www.w3.org/2000/svg">
<g filter="url(#filter0_d_0_3)">
<path fill-rule="evenodd" clip-rule="evenodd" d="M456.2 692.265C490.57 678.948 522.831 657.953 550.545 629.272C654.542 521.645 655.124 346.54 551.844 238.165C448.564 129.79 280.533 129.184 176.536 236.811C148.822 265.492 128.452 298.966 115.435 334.691C127.844 287.087 152.057 242.138 188.058 204.88C297.394 91.7277 474.05 92.3651 582.631 206.303C691.212 320.241 690.601 504.334 581.265 617.486C545.264 654.744 501.965 679.664 456.2 692.265Z" fill="black"/>
<path fill-rule="evenodd" clip-rule="evenodd" d="M612.279 505.287C600.272 538.239 581.483 569.113 555.921 595.568C459.995 694.842 305.006 694.283 209.742 594.319C114.478 494.355 115.015 332.841 210.941 233.568C236.502 207.114 266.258 187.749 297.959 175.465C255.748 187.088 215.81 210.074 182.604 244.439C81.7547 348.809 81.1905 518.614 181.344 623.709C281.498 728.803 444.443 729.391 545.293 625.022C578.499 590.656 600.833 549.195 612.279 505.287Z" fill="#3CB371"/>
<path d="M368.23 261.975L330.389 262.217V316.165V370.114L384.016 370.356C413.499 370.501 438.71 370.404 439.964 370.211C441.264 370.017 443.864 369.63 445.768 369.437C447.671 369.195 450.179 368.759 451.339 368.517C452.5 368.227 454.682 367.743 456.215 367.453C457.747 367.163 460.068 366.485 461.322 365.953C462.622 365.469 464.061 365.034 464.526 365.034C466.94 365.034 479.29 359.082 487.137 354.099C500.88 345.39 515.691 329.665 522.006 317.085C522.479 316.156 523.036 315.314 523.406 314.789C523.672 314.412 523.928 314.026 524.15 313.621L524.745 312.536L525.72 310.843L526.092 309.924L526.788 308.23L527.007 307.758C527.322 307.081 527.528 306.344 527.752 305.632C528.01 304.812 528.426 303.666 528.877 302.521C529.43 301.234 529.99 299.772 530.277 299.01C530.409 298.66 530.556 298.316 530.722 297.981L530.967 297.489L531.663 295.844L531.988 294.828L532.313 293.812C532.313 293.812 533.056 292.167 533.149 290.957C533.288 289.796 533.845 286.748 534.403 284.232C536.399 275.522 537.421 262.652 536.213 262.217C535.331 261.878 411.41 261.684 368.23 261.975Z" fill="#3CB371"/>
<path d="M300.181 262.314C291.035 263.572 279.845 266.378 274.645 268.7C272.362 269.716 270.307 270.51 268.923 271.018C267.729 271.456 266.552 271.936 265.413 272.503V272.503C263.069 273.671 260.966 275.273 258.754 276.676C258.621 276.761 258.485 276.844 258.348 276.926C249.526 282.248 240.055 290.328 233.322 298.263C227.379 305.327 222.225 313.262 218.232 321.488C216.886 324.294 215.632 326.955 215.4 327.391C214.425 329.374 211.593 338.229 210.293 343.164C207.368 354.438 207.414 354.292 207.229 388.984C207.089 406.548 207.089 422.418 207.182 424.305L207.321 427.692L208.714 425.514C213.589 417.87 225.429 404.467 232.765 398.371C246.415 386.904 262.759 378.291 278.824 374.033C288.76 371.421 293.588 370.598 303.199 369.872C307.146 369.582 310.535 369.195 310.767 368.953C310.953 368.759 311.046 344.664 310.999 315.391L310.86 262.217L306.217 262.168C303.664 262.12 300.971 262.168 300.181 262.314Z" fill="#3CB371"/>
<path d="M330.546 390.532C329.989 391.161 329.896 398.419 329.989 433.691C329.989 457.013 330.082 476.85 330.129 477.77C330.175 478.689 330.036 483.527 329.85 488.463C329.525 497.414 329.525 497.462 330.593 498.575C331.521 499.543 331.939 499.639 334.493 499.349C336.025 499.204 339.507 498.817 342.2 498.575C351.951 497.607 364.997 493.736 374.516 488.995C403.534 474.625 425.031 447.142 431.949 415.596C433.946 406.499 434.178 404.661 434.457 397.838C434.642 392.855 434.596 391.016 434.132 390.436C433.621 389.807 427.585 389.71 382.362 389.71C335.329 389.71 331.104 389.758 330.546 390.532Z" fill="black"/>
<path d="M299.392 390.968C287.414 392.468 276.27 395.855 265.731 401.177C263.224 402.435 261.088 403.596 260.948 403.741C260.809 403.935 259.881 404.467 258.859 404.951C257.838 405.435 256.491 406.257 255.888 406.741C255.284 407.225 254.448 407.612 253.984 407.612C253.566 407.612 252.963 408.144 252.684 408.773C252.405 409.402 251.709 410.128 251.105 410.273C250.502 410.467 249.295 411.338 248.366 412.16C247.484 412.983 245.58 414.628 244.187 415.837C241.123 418.45 233.508 426.337 230.862 429.627C227.983 433.207 221.39 443.513 218.976 448.303C213.776 458.609 210.386 468.964 208.158 481.398C207.461 485.414 207.322 488.656 207.322 500.994C207.368 514.058 207.461 516.38 208.343 521.074C209.968 529.734 212.522 538.831 214.379 542.605C214.704 543.282 214.983 544.056 214.983 544.347C214.983 545.798 222.69 560.265 226.08 565.103C237.641 581.893 251.755 593.65 271.163 602.795C277.988 605.988 290.06 609.278 298.789 610.295C307.564 611.359 309.7 611.407 310.396 610.827C311 610.295 311.093 596.747 311.093 500.8C311.093 416.321 310.954 391.21 310.536 390.774C309.839 390.048 306.032 390.097 299.392 390.968Z" fill="black"/>
<path d="M842.362 548.072V515.692L871.041 510.141V316.785L842.362 311.234V278.669H1056.81V352.496H1015.36L1012.96 320.3H925.07V394.497H1019.43V436.129H925.07V510.141L953.934 515.692V548.072H842.362ZM1074.94 548.072V515.692L1101.03 510.141V297.542L1072.17 291.991V259.426H1155.06V510.141L1181.15 515.692V548.072H1074.94ZM1291.06 551.957C1271.94 551.957 1255.22 547.763 1240.92 539.375C1226.61 530.864 1215.5 519.207 1207.61 504.405C1199.84 489.602 1195.95 472.703 1195.95 453.707V446.306C1195.95 426.446 1199.65 408.868 1207.05 393.572C1214.46 378.153 1224.88 366.064 1238.32 357.306C1251.89 348.425 1267.87 344.046 1286.25 344.169C1304.38 344.169 1319.61 347.747 1331.95 354.901C1344.28 362.055 1353.66 372.355 1360.07 385.801C1366.49 399.246 1369.7 415.529 1369.7 434.649V464.068H1252.02L1251.65 465.179C1252.39 473.937 1254.55 481.77 1258.12 488.677C1261.82 495.462 1267 500.828 1273.67 504.775C1280.33 508.599 1288.41 510.511 1297.9 510.511C1307.77 510.511 1316.96 509.277 1325.47 506.81C1334.11 504.22 1342.5 500.458 1350.64 495.523L1365.25 528.829C1356.99 535.49 1346.57 541.041 1333.98 545.481C1321.53 549.799 1307.22 551.957 1291.06 551.957ZM1252.39 428.358H1319.18V423.547C1319.18 415.406 1318.07 408.436 1315.85 402.639C1313.75 396.718 1310.3 392.154 1305.49 388.946C1300.8 385.739 1294.7 384.136 1287.17 384.136C1280.02 384.136 1273.97 386.048 1269.04 389.872C1264.11 393.572 1260.22 398.691 1257.38 405.229C1254.67 411.767 1252.82 419.168 1251.83 427.433L1252.39 428.358ZM1491.26 551.957C1472.14 551.957 1455.43 547.763 1441.12 539.375C1426.81 530.864 1415.71 519.207 1407.81 504.405C1400.04 489.602 1396.15 472.703 1396.15 453.707V446.306C1396.15 426.446 1399.86 408.868 1407.26 393.572C1414.66 378.153 1425.08 366.064 1438.53 357.306C1452.1 348.425 1468.07 344.046 1486.45 344.169C1504.58 344.169 1519.82 347.747 1532.15 354.901C1544.49 362.055 1553.86 372.355 1560.28 385.801C1566.69 399.246 1569.9 415.529 1569.9 434.649V464.068H1452.22L1451.85 465.179C1452.59 473.937 1454.75 481.77 1458.32 488.677C1462.03 495.462 1467.21 500.828 1473.87 504.775C1480.53 508.599 1488.61 510.511 1498.11 510.511C1507.97 510.511 1517.16 509.277 1525.68 506.81C1534.31 504.22 1542.7 500.458 1550.84 495.523L1565.46 528.829C1557.19 535.49 1546.77 541.041 1534.19 545.481C1521.73 549.799 1507.42 551.957 1491.26 551.957ZM1452.59 428.358H1519.38V423.547C1519.38 415.406 1518.27 408.436 1516.05 402.639C1513.96 396.718 1510.5 392.154 1505.69 388.946C1501 385.739 1494.9 384.136 1487.37 384.136C1480.22 384.136 1474.18 386.048 1469.24 389.872C1464.31 393.572 1460.42 398.691 1457.58 405.229C1454.87 411.767 1453.02 419.168 1452.03 427.433L1452.59 428.358ZM1673.51 551.957C1654.89 551.957 1640.52 546.838 1630.4 536.6C1620.41 526.362 1615.41 510.141 1615.41 487.937V385.801H1587.85V347.87H1615.41V298.837H1669.26V347.87H1706.08V385.801H1669.26V487.752C1669.26 495.523 1670.86 501.074 1674.07 504.405C1677.4 507.735 1681.9 509.401 1687.58 509.401C1690.66 509.401 1693.87 509.216 1697.2 508.846C1700.65 508.352 1703.61 507.859 1706.08 507.365L1710.7 546.407C1705.15 548.01 1699.11 549.305 1692.57 550.292C1686.16 551.402 1679.8 551.957 1673.51 551.957Z" fill="black"/>
<path d="M1839.67 551.957C1819.81 551.957 1801.74 549.737 1785.46 545.296C1769.17 540.856 1753.14 533.146 1737.35 522.168V457.037H1779.17L1784.9 495.338C1790.45 500.026 1798.1 503.85 1807.85 506.81C1817.59 509.647 1828.2 511.066 1839.67 511.066C1849.42 511.066 1857.62 509.709 1864.28 506.995C1871.06 504.281 1876.18 500.458 1879.64 495.523C1883.21 490.466 1885 484.545 1885 477.761C1885 471.346 1883.4 465.672 1880.19 460.738C1877.11 455.68 1871.93 451.116 1864.65 447.046C1857.49 442.852 1847.75 438.843 1835.41 435.019C1814.07 428.728 1796.37 421.882 1782.31 414.48C1768.37 406.956 1757.89 398.013 1750.86 387.651C1743.95 377.166 1740.49 364.584 1740.49 349.905C1740.49 335.35 1744.5 322.521 1752.52 311.419C1760.66 300.194 1771.89 291.374 1786.2 284.96C1800.51 278.546 1817.04 275.215 1835.78 274.968C1856.51 274.722 1874.83 277.189 1890.74 282.369C1906.77 287.55 1920.59 294.766 1932.19 304.018V364.708H1891.66L1884.63 327.702C1879.95 324.741 1873.59 322.151 1865.57 319.93C1857.68 317.71 1848.68 316.6 1838.56 316.6C1829.93 316.6 1822.28 317.895 1815.62 320.486C1809.08 323.076 1803.9 326.838 1800.07 331.772C1796.25 336.706 1794.34 342.689 1794.34 349.72C1794.34 355.764 1796 361.069 1799.33 365.633C1802.66 370.073 1808.22 374.329 1815.99 378.4C1823.88 382.347 1834.74 386.603 1848.55 391.167C1878.28 399.431 1900.79 410.348 1916.09 423.917C1931.51 437.486 1939.22 455.31 1939.22 477.391C1939.22 492.686 1935.08 505.947 1926.82 517.172C1918.55 528.274 1906.96 536.847 1892.03 542.891C1877.11 548.935 1859.65 551.957 1839.67 551.957ZM2028.96 551.957C2009.1 551.957 1993.31 546.653 1981.59 536.045C1969.87 525.313 1964.01 510.757 1964.01 492.378C1964.01 479.796 1967.4 468.756 1974.19 459.258C1981.09 449.759 1991.21 442.297 2004.53 436.869C2017.98 431.442 2034.51 428.728 2054.12 428.728H2080.58V413.925C2080.58 404.304 2077.74 396.533 2072.07 390.612C2066.52 384.567 2058.13 381.545 2046.9 381.545C2041.11 381.545 2035.92 382.285 2031.36 383.766C2026.8 385.122 2022.6 387.096 2018.78 389.687L2014.52 416.146H1975.67L1974.93 364.152C1985.41 358.232 1996.76 353.421 2008.97 349.72C2021.18 346.02 2034.81 344.169 2049.86 344.169C2076.01 344.169 2096.68 350.275 2111.85 362.487C2127.02 374.576 2134.61 391.907 2134.61 414.48V497.004C2134.61 499.717 2134.61 502.431 2134.61 505.145C2134.73 507.735 2134.98 510.264 2135.35 512.731L2156.26 515.692V548.072H2089.28C2087.92 544.618 2086.56 540.917 2085.2 536.97C2083.85 533.023 2082.86 529.075 2082.24 525.128C2075.83 533.269 2068.24 539.807 2059.49 544.741C2050.85 549.552 2040.67 551.957 2028.96 551.957ZM2043.39 511.991C2050.91 511.991 2058.07 510.326 2064.85 506.995C2071.64 503.541 2076.88 499.039 2080.58 493.488V461.848H2053.93C2042.09 461.848 2033.09 464.562 2026.92 469.989C2020.88 475.417 2017.85 481.955 2017.85 489.602C2017.85 496.757 2020.07 502.308 2024.51 506.255C2029.08 510.079 2035.37 511.991 2043.39 511.991ZM2247.48 551.957C2228.85 551.957 2214.48 546.838 2204.36 536.6C2194.37 526.362 2189.38 510.141 2189.38 487.937V385.801H2161.81V347.87H2189.38V298.837H2243.22V347.87H2280.04V385.801H2243.22V487.752C2243.22 495.523 2244.82 501.074 2248.03 504.405C2251.36 507.735 2255.86 509.401 2261.54 509.401C2264.62 509.401 2267.83 509.216 2271.16 508.846C2274.61 508.352 2277.57 507.859 2280.04 507.365L2284.67 546.407C2279.12 548.01 2273.07 549.305 2266.53 550.292C2260.12 551.402 2253.77 551.957 2247.48 551.957ZM2302.06 548.072V515.692L2328.15 510.141V297.542L2299.28 291.991V259.426H2381.99V373.404C2388.28 364.152 2396.05 356.998 2405.31 351.941C2414.68 346.76 2425.29 344.169 2437.13 344.169C2457.24 344.169 2473.15 350.892 2484.87 364.338C2496.71 377.66 2502.63 398.321 2502.63 426.322V510.141L2528.54 515.692V548.072H2425.29V515.692L2448.6 510.141V425.952C2448.6 411.52 2445.89 401.282 2440.46 395.237C2435.03 389.193 2427.08 386.171 2416.59 386.171C2409.31 386.171 2402.65 387.713 2396.61 390.797C2390.69 393.757 2385.82 398.136 2381.99 403.934V510.141L2405.31 515.692V548.072H2302.06ZM2544.26 548.072V515.692L2570.35 510.141V385.986L2541.49 380.435V347.87H2624.38V510.141L2650.28 515.692V548.072H2544.26ZM2568.5 305.498V259.426H2624.38V305.498H2568.5Z" fill="#3CB371"/>
<rect x="2657.39" y="214.693" width="50.0392" height="47.4633" fill="black"/>
<rect x="2707.43" y="176.318" width="38.5719" height="38.3746" fill="#3CB371"/>
<rect x="2678.24" y="150.062" width="29.1895" height="26.2563" fill="black"/>
</g>
<defs>
<filter id="filter0_d_0_3" x="102.596" y="120.431" width="2647.4" height="590.485" filterUnits="userSpaceOnUse" color-interpolation-filters="sRGB">
<feFlood flood-opacity="0" result="BackgroundImageFix"/>
<feColorMatrix in="SourceAlpha" type="matrix" values="0 0 0 0 0 0 0 0 0 0 0 0 0 0 0 0 0 0 127 0" result="hardAlpha"/>
<feOffset dy="4"/>
<feGaussianBlur stdDeviation="2"/>
<feComposite in2="hardAlpha" operator="out"/>
<feColorMatrix type="matrix" values="0 0 0 0 0 0 0 0 0 0 0 0 0 0 0 0 0 0 0.25 0"/>
<feBlend mode="normal" in2="BackgroundImageFix" result="effect1_dropShadow_0_3"/>
<feBlend mode="normal" in="SourceGraphic" in2="effect1_dropShadow_0_3" result="shape"/>
</filter>
</defs>
</svg>
